<svg xmlns="http://www.w3.org/2000/svg" width="1440" height="740" viewBox="0 0 1440 740" font-family="'Helvetica Neue', Helvetica, Arial, 'DejaVu Sans', sans-serif" role="img" aria-label="Recall difference with bootstrap 95% CI for fixsel_gazef vs gazef and vs center">
<rect width="1440" height="740" fill="#1a1a19"/>
<text x="16" y="24" font-size="19" font-weight="700" fill="#f2f2f2">fixsel_gazef − gazef</text>
<text x="268" y="24" font-size="14" fill="#b5b4ad">selection on top of the gaze crop · recall@k difference (pp), 95% bootstrap CI</text>
<text x="267.0" y="58" font-size="18" font-weight="700" text-anchor="middle" fill="#f2f2f2">tol = 0 s  (strict)</text>
<line x1="78" x2="456" y1="312.0" y2="312.0" stroke="#3a3a38" stroke-dasharray="4 4"/>
<text x="68" y="317.0" font-size="14" text-anchor="end" fill="#d4d4d4">-4</text>
<line x1="78" x2="456" y1="272.0" y2="272.0" stroke="#3a3a38" stroke-dasharray="4 4"/>
<text x="68" y="277.0" font-size="14" text-anchor="end" fill="#d4d4d4">-2</text>
<line x1="78" x2="456" y1="232.0" y2="232.0" stroke="#bdbdbd" stroke-width="1.6"/>
<text x="68" y="237.0" font-size="14" text-anchor="end" fill="#d4d4d4">0</text>
<line x1="78" x2="456" y1="192.0" y2="192.0" stroke="#3a3a38" stroke-dasharray="4 4"/>
<text x="68" y="197.0" font-size="14" text-anchor="end" fill="#d4d4d4">+2</text>
<line x1="78" x2="456" y1="152.0" y2="152.0" stroke="#3a3a38" stroke-dasharray="4 4"/>
<text x="68" y="157.0" font-size="14" text-anchor="end" fill="#d4d4d4">+4</text>
<line x1="78" x2="456" y1="112.0" y2="112.0" stroke="#3a3a38" stroke-dasharray="4 4"/>
<text x="68" y="117.0" font-size="14" text-anchor="end" fill="#d4d4d4">+6</text>
<line x1="78" x2="456" y1="72.0" y2="72.0" stroke="#3a3a38" stroke-dasharray="4 4"/>
<text x="68" y="77.0" font-size="14" text-anchor="end" fill="#d4d4d4">+8</text>
<text x="108.0" y="334" font-size="14" text-anchor="middle" fill="#d4d4d4">1</text>
<text x="187.5" y="334" font-size="14" text-anchor="middle" fill="#d4d4d4">3</text>
<text x="267.0" y="334" font-size="14" text-anchor="middle" fill="#d4d4d4">5</text>
<text x="346.5" y="334" font-size="14" text-anchor="middle" fill="#d4d4d4">10</text>
<text x="426.0" y="334" font-size="14" text-anchor="middle" fill="#d4d4d4">20</text>
<text x="267.0" y="358" font-size="15" text-anchor="middle" fill="#f2f2f2">k</text>
<text x="32" y="192.0" font-size="15" text-anchor="middle" fill="#f2f2f2" transform="rotate(-90 32 192.0)">Recall diff (pp)</text>
<line x1="78" x2="78" y1="72" y2="312" stroke="#bdbdbd" stroke-width="1.2"/>
<line x1="108.0" x2="108.0" y1="256.6" y2="195.0" stroke="#2fd19a" stroke-width="3" stroke-linecap="round"/>
<circle cx="108.0" cy="227.9" r="6.5" fill="#1a1a19" stroke="#2fd19a" stroke-width="2.5"/>
<line x1="187.5" x2="187.5" y1="244.3" y2="170.4" stroke="#2fd19a" stroke-width="3" stroke-linecap="round"/>
<circle cx="187.5" cy="207.4" r="6.5" fill="#1a1a19" stroke="#2fd19a" stroke-width="2.5"/>
<line x1="267.0" x2="267.0" y1="236.1" y2="154.0" stroke="#2fd19a" stroke-width="3" stroke-linecap="round"/>
<circle cx="267.0" cy="195.0" r="6.5" fill="#1a1a19" stroke="#2fd19a" stroke-width="2.5"/>
<line x1="346.5" x2="346.5" y1="277.2" y2="182.7" stroke="#2fd19a" stroke-width="3" stroke-linecap="round"/>
<circle cx="346.5" cy="232.0" r="6.5" fill="#1a1a19" stroke="#2fd19a" stroke-width="2.5"/>
<line x1="426.0" x2="426.0" y1="256.6" y2="149.9" stroke="#2fd19a" stroke-width="3" stroke-linecap="round"/>
<circle cx="426.0" cy="203.3" r="6.5" fill="#1a1a19" stroke="#2fd19a" stroke-width="2.5"/>
<text x="747.0" y="58" font-size="18" font-weight="700" text-anchor="middle" fill="#f2f2f2">tol = 30 s</text>
<line x1="558" x2="936" y1="312.0" y2="312.0" stroke="#3a3a38" stroke-dasharray="4 4"/>
<text x="548" y="317.0" font-size="14" text-anchor="end" fill="#d4d4d4">-4</text>
<line x1="558" x2="936" y1="272.0" y2="272.0" stroke="#3a3a38" stroke-dasharray="4 4"/>
<text x="548" y="277.0" font-size="14" text-anchor="end" fill="#d4d4d4">-2</text>
<line x1="558" x2="936" y1="232.0" y2="232.0" stroke="#bdbdbd" stroke-width="1.6"/>
<text x="548" y="237.0" font-size="14" text-anchor="end" fill="#d4d4d4">0</text>
<line x1="558" x2="936" y1="192.0" y2="192.0" stroke="#3a3a38" stroke-dasharray="4 4"/>
<text x="548" y="197.0" font-size="14" text-anchor="end" fill="#d4d4d4">+2</text>
<line x1="558" x2="936" y1="152.0" y2="152.0" stroke="#3a3a38" stroke-dasharray="4 4"/>
<text x="548" y="157.0" font-size="14" text-anchor="end" fill="#d4d4d4">+4</text>
<line x1="558" x2="936" y1="112.0" y2="112.0" stroke="#3a3a38" stroke-dasharray="4 4"/>
<text x="548" y="117.0" font-size="14" text-anchor="end" fill="#d4d4d4">+6</text>
<line x1="558" x2="936" y1="72.0" y2="72.0" stroke="#3a3a38" stroke-dasharray="4 4"/>
<text x="548" y="77.0" font-size="14" text-anchor="end" fill="#d4d4d4">+8</text>
<text x="588.0" y="334" font-size="14" text-anchor="middle" fill="#d4d4d4">1</text>
<text x="667.5" y="334" font-size="14" text-anchor="middle" fill="#d4d4d4">3</text>
<text x="747.0" y="334" font-size="14" text-anchor="middle" fill="#d4d4d4">5</text>
<text x="826.5" y="334" font-size="14" text-anchor="middle" fill="#d4d4d4">10</text>
<text x="906.0" y="334" font-size="14" text-anchor="middle" fill="#d4d4d4">20</text>
<text x="747.0" y="358" font-size="15" text-anchor="middle" fill="#f2f2f2">k</text>
<text x="512" y="192.0" font-size="15" text-anchor="middle" fill="#f2f2f2" transform="rotate(-90 512 192.0)">Recall diff (pp)</text>
<line x1="558" x2="558" y1="72" y2="312" stroke="#bdbdbd" stroke-width="1.2"/>
<line x1="588.0" x2="588.0" y1="276.0" y2="204.0" stroke="#2fd19a" stroke-width="3" stroke-linecap="round"/>
<circle cx="588.0" cy="240.0" r="6.5" fill="#1a1a19" stroke="#2fd19a" stroke-width="2.5"/>
<line x1="667.5" x2="667.5" y1="252.0" y2="164.0" stroke="#2fd19a" stroke-width="3" stroke-linecap="round"/>
<circle cx="667.5" cy="208.0" r="6.5" fill="#1a1a19" stroke="#2fd19a" stroke-width="2.5"/>
<line x1="747.0" x2="747.0" y1="256.0" y2="168.0" stroke="#2fd19a" stroke-width="3" stroke-linecap="round"/>
<circle cx="747.0" cy="212.0" r="6.5" fill="#1a1a19" stroke="#2fd19a" stroke-width="2.5"/>
<line x1="826.5" x2="826.5" y1="292.0" y2="184.0" stroke="#2fd19a" stroke-width="3" stroke-linecap="round"/>
<circle cx="826.5" cy="240.0" r="6.5" fill="#1a1a19" stroke="#2fd19a" stroke-width="2.5"/>
<line x1="906.0" x2="906.0" y1="308.0" y2="196.0" stroke="#2fd19a" stroke-width="3" stroke-linecap="round"/>
<circle cx="906.0" cy="252.0" r="6.5" fill="#1a1a19" stroke="#2fd19a" stroke-width="2.5"/>
<text x="1227.0" y="58" font-size="18" font-weight="700" text-anchor="middle" fill="#f2f2f2">tol = 60 s</text>
<line x1="1038" x2="1416" y1="312.0" y2="312.0" stroke="#3a3a38" stroke-dasharray="4 4"/>
<text x="1028" y="317.0" font-size="14" text-anchor="end" fill="#d4d4d4">-4</text>
<line x1="1038" x2="1416" y1="272.0" y2="272.0" stroke="#3a3a38" stroke-dasharray="4 4"/>
<text x="1028" y="277.0" font-size="14" text-anchor="end" fill="#d4d4d4">-2</text>
<line x1="1038" x2="1416" y1="232.0" y2="232.0" stroke="#bdbdbd" stroke-width="1.6"/>
<text x="1028" y="237.0" font-size="14" text-anchor="end" fill="#d4d4d4">0</text>
<line x1="1038" x2="1416" y1="192.0" y2="192.0" stroke="#3a3a38" stroke-dasharray="4 4"/>
<text x="1028" y="197.0" font-size="14" text-anchor="end" fill="#d4d4d4">+2</text>
<line x1="1038" x2="1416" y1="152.0" y2="152.0" stroke="#3a3a38" stroke-dasharray="4 4"/>
<text x="1028" y="157.0" font-size="14" text-anchor="end" fill="#d4d4d4">+4</text>
<line x1="1038" x2="1416" y1="112.0" y2="112.0" stroke="#3a3a38" stroke-dasharray="4 4"/>
<text x="1028" y="117.0" font-size="14" text-anchor="end" fill="#d4d4d4">+6</text>
<line x1="1038" x2="1416" y1="72.0" y2="72.0" stroke="#3a3a38" stroke-dasharray="4 4"/>
<text x="1028" y="77.0" font-size="14" text-anchor="end" fill="#d4d4d4">+8</text>
<text x="1068.0" y="334" font-size="14" text-anchor="middle" fill="#d4d4d4">1</text>
<text x="1147.5" y="334" font-size="14" text-anchor="middle" fill="#d4d4d4">3</text>
<text x="1227.0" y="334" font-size="14" text-anchor="middle" fill="#d4d4d4">5</text>
<text x="1306.5" y="334" font-size="14" text-anchor="middle" fill="#d4d4d4">10</text>
<text x="1386.0" y="334" font-size="14" text-anchor="middle" fill="#d4d4d4">20</text>
<text x="1227.0" y="358" font-size="15" text-anchor="middle" fill="#f2f2f2">k</text>
<text x="992" y="192.0" font-size="15" text-anchor="middle" fill="#f2f2f2" transform="rotate(-90 992 192.0)">Recall diff (pp)</text>
<line x1="1038" x2="1038" y1="72" y2="312" stroke="#bdbdbd" stroke-width="1.2"/>
<line x1="1068.0" x2="1068.0" y1="288.0" y2="216.0" stroke="#2fd19a" stroke-width="3" stroke-linecap="round"/>
<circle cx="1068.0" cy="252.0" r="6.5" fill="#1a1a19" stroke="#2fd19a" stroke-width="2.5"/>
<line x1="1147.5" x2="1147.5" y1="268.0" y2="168.0" stroke="#2fd19a" stroke-width="3" stroke-linecap="round"/>
<circle cx="1147.5" cy="220.0" r="6.5" fill="#1a1a19" stroke="#2fd19a" stroke-width="2.5"/>
<line x1="1227.0" x2="1227.0" y1="268.0" y2="156.0" stroke="#2fd19a" stroke-width="3" stroke-linecap="round"/>
<circle cx="1227.0" cy="212.0" r="6.5" fill="#1a1a19" stroke="#2fd19a" stroke-width="2.5"/>
<line x1="1306.5" x2="1306.5" y1="272.0" y2="160.0" stroke="#2fd19a" stroke-width="3" stroke-linecap="round"/>
<circle cx="1306.5" cy="216.0" r="6.5" fill="#1a1a19" stroke="#2fd19a" stroke-width="2.5"/>
<line x1="1386.0" x2="1386.0" y1="300.0" y2="180.0" stroke="#2fd19a" stroke-width="3" stroke-linecap="round"/>
<circle cx="1386.0" cy="240.0" r="6.5" fill="#1a1a19" stroke="#2fd19a" stroke-width="2.5"/>
<text x="16" y="394" font-size="19" font-weight="700" fill="#f2f2f2">fixsel_gazef − center</text>
<text x="280" y="394" font-size="14" fill="#b5b4ad">selection + gaze crop vs the centre crop · recall@k difference (pp), 95% bootstrap CI</text>
<text x="267.0" y="428" font-size="18" font-weight="700" text-anchor="middle" fill="#f2f2f2">tol = 0 s  (strict)</text>
<line x1="78" x2="456" y1="682.0" y2="682.0" stroke="#3a3a38" stroke-dasharray="4 4"/>
<text x="68" y="687.0" font-size="14" text-anchor="end" fill="#d4d4d4">-4</text>
<line x1="78" x2="456" y1="642.0" y2="642.0" stroke="#3a3a38" stroke-dasharray="4 4"/>
<text x="68" y="647.0" font-size="14" text-anchor="end" fill="#d4d4d4">-2</text>
<line x1="78" x2="456" y1="602.0" y2="602.0" stroke="#bdbdbd" stroke-width="1.6"/>
<text x="68" y="607.0" font-size="14" text-anchor="end" fill="#d4d4d4">0</text>
<line x1="78" x2="456" y1="562.0" y2="562.0" stroke="#3a3a38" stroke-dasharray="4 4"/>
<text x="68" y="567.0" font-size="14" text-anchor="end" fill="#d4d4d4">+2</text>
<line x1="78" x2="456" y1="522.0" y2="522.0" stroke="#3a3a38" stroke-dasharray="4 4"/>
<text x="68" y="527.0" font-size="14" text-anchor="end" fill="#d4d4d4">+4</text>
<line x1="78" x2="456" y1="482.0" y2="482.0" stroke="#3a3a38" stroke-dasharray="4 4"/>
<text x="68" y="487.0" font-size="14" text-anchor="end" fill="#d4d4d4">+6</text>
<line x1="78" x2="456" y1="442.0" y2="442.0" stroke="#3a3a38" stroke-dasharray="4 4"/>
<text x="68" y="447.0" font-size="14" text-anchor="end" fill="#d4d4d4">+8</text>
<text x="108.0" y="704" font-size="14" text-anchor="middle" fill="#d4d4d4">1</text>
<text x="187.5" y="704" font-size="14" text-anchor="middle" fill="#d4d4d4">3</text>
<text x="267.0" y="704" font-size="14" text-anchor="middle" fill="#d4d4d4">5</text>
<text x="346.5" y="704" font-size="14" text-anchor="middle" fill="#d4d4d4">10</text>
<text x="426.0" y="704" font-size="14" text-anchor="middle" fill="#d4d4d4">20</text>
<text x="267.0" y="728" font-size="15" text-anchor="middle" fill="#f2f2f2">k</text>
<text x="32" y="562.0" font-size="15" text-anchor="middle" fill="#f2f2f2" transform="rotate(-90 32 562.0)">Recall diff (pp)</text>
<line x1="78" x2="78" y1="442" y2="682" stroke="#bdbdbd" stroke-width="1.2"/>
<line x1="108.0" x2="108.0" y1="614.3" y2="548.6" stroke="#2fd19a" stroke-width="3" stroke-linecap="round"/>
<circle cx="108.0" cy="581.5" r="6.5" fill="#1a1a19" stroke="#2fd19a" stroke-width="2.5"/>
<line x1="187.5" x2="187.5" y1="614.3" y2="524.0" stroke="#2fd19a" stroke-width="3" stroke-linecap="round"/>
<circle cx="187.5" cy="569.1" r="6.5" fill="#1a1a19" stroke="#2fd19a" stroke-width="2.5"/>
<line x1="267.0" x2="267.0" y1="622.5" y2="519.9" stroke="#2fd19a" stroke-width="3" stroke-linecap="round"/>
<circle cx="267.0" cy="573.3" r="6.5" fill="#1a1a19" stroke="#2fd19a" stroke-width="2.5"/>
<line x1="346.5" x2="346.5" y1="626.6" y2="515.8" stroke="#2fd19a" stroke-width="3" stroke-linecap="round"/>
<circle cx="346.5" cy="573.3" r="6.5" fill="#1a1a19" stroke="#2fd19a" stroke-width="2.5"/>
<line x1="426.0" x2="426.0" y1="614.3" y2="499.3" stroke="#2fd19a" stroke-width="3" stroke-linecap="round"/>
<circle cx="426.0" cy="556.8" r="6.5" fill="#1a1a19" stroke="#2fd19a" stroke-width="2.5"/>
<text x="747.0" y="428" font-size="18" font-weight="700" text-anchor="middle" fill="#f2f2f2">tol = 30 s</text>
<line x1="558" x2="936" y1="682.0" y2="682.0" stroke="#3a3a38" stroke-dasharray="4 4"/>
<text x="548" y="687.0" font-size="14" text-anchor="end" fill="#d4d4d4">-4</text>
<line x1="558" x2="936" y1="642.0" y2="642.0" stroke="#3a3a38" stroke-dasharray="4 4"/>
<text x="548" y="647.0" font-size="14" text-anchor="end" fill="#d4d4d4">-2</text>
<line x1="558" x2="936" y1="602.0" y2="602.0" stroke="#bdbdbd" stroke-width="1.6"/>
<text x="548" y="607.0" font-size="14" text-anchor="end" fill="#d4d4d4">0</text>
<line x1="558" x2="936" y1="562.0" y2="562.0" stroke="#3a3a38" stroke-dasharray="4 4"/>
<text x="548" y="567.0" font-size="14" text-anchor="end" fill="#d4d4d4">+2</text>
<line x1="558" x2="936" y1="522.0" y2="522.0" stroke="#3a3a38" stroke-dasharray="4 4"/>
<text x="548" y="527.0" font-size="14" text-anchor="end" fill="#d4d4d4">+4</text>
<line x1="558" x2="936" y1="482.0" y2="482.0" stroke="#3a3a38" stroke-dasharray="4 4"/>
<text x="548" y="487.0" font-size="14" text-anchor="end" fill="#d4d4d4">+6</text>
<line x1="558" x2="936" y1="442.0" y2="442.0" stroke="#3a3a38" stroke-dasharray="4 4"/>
<text x="548" y="447.0" font-size="14" text-anchor="end" fill="#d4d4d4">+8</text>
<text x="588.0" y="704" font-size="14" text-anchor="middle" fill="#d4d4d4">1</text>
<text x="667.5" y="704" font-size="14" text-anchor="middle" fill="#d4d4d4">3</text>
<text x="747.0" y="704" font-size="14" text-anchor="middle" fill="#d4d4d4">5</text>
<text x="826.5" y="704" font-size="14" text-anchor="middle" fill="#d4d4d4">10</text>
<text x="906.0" y="704" font-size="14" text-anchor="middle" fill="#d4d4d4">20</text>
<text x="747.0" y="728" font-size="15" text-anchor="middle" fill="#f2f2f2">k</text>
<text x="512" y="562.0" font-size="15" text-anchor="middle" fill="#f2f2f2" transform="rotate(-90 512 562.0)">Recall diff (pp)</text>
<line x1="558" x2="558" y1="442" y2="682" stroke="#bdbdbd" stroke-width="1.2"/>
<line x1="588.0" x2="588.0" y1="638.0" y2="550.0" stroke="#2fd19a" stroke-width="3" stroke-linecap="round"/>
<circle cx="588.0" cy="594.0" r="6.5" fill="#1a1a19" stroke="#2fd19a" stroke-width="2.5"/>
<line x1="667.5" x2="667.5" y1="610.0" y2="498.0" stroke="#2fd19a" stroke-width="3" stroke-linecap="round"/>
<circle cx="667.5" cy="554.0" r="6.5" fill="#1a1a19" stroke="#2fd19a" stroke-width="2.5"/>
<line x1="747.0" x2="747.0" y1="614.0" y2="502.0" stroke="#2fd19a" stroke-width="3" stroke-linecap="round"/>
<circle cx="747.0" cy="558.0" r="6.5" fill="#1a1a19" stroke="#2fd19a" stroke-width="2.5"/>
<line x1="826.5" x2="826.5" y1="630.0" y2="506.0" stroke="#2fd19a" stroke-width="3" stroke-linecap="round"/>
<circle cx="826.5" cy="570.0" r="6.5" fill="#1a1a19" stroke="#2fd19a" stroke-width="2.5"/>
<line x1="906.0" x2="906.0" y1="634.0" y2="510.0" stroke="#2fd19a" stroke-width="3" stroke-linecap="round"/>
<circle cx="906.0" cy="574.0" r="6.5" fill="#1a1a19" stroke="#2fd19a" stroke-width="2.5"/>
<text x="1227.0" y="428" font-size="18" font-weight="700" text-anchor="middle" fill="#f2f2f2">tol = 60 s</text>
<line x1="1038" x2="1416" y1="682.0" y2="682.0" stroke="#3a3a38" stroke-dasharray="4 4"/>
<text x="1028" y="687.0" font-size="14" text-anchor="end" fill="#d4d4d4">-4</text>
<line x1="1038" x2="1416" y1="642.0" y2="642.0" stroke="#3a3a38" stroke-dasharray="4 4"/>
<text x="1028" y="647.0" font-size="14" text-anchor="end" fill="#d4d4d4">-2</text>
<line x1="1038" x2="1416" y1="602.0" y2="602.0" stroke="#bdbdbd" stroke-width="1.6"/>
<text x="1028" y="607.0" font-size="14" text-anchor="end" fill="#d4d4d4">0</text>
<line x1="1038" x2="1416" y1="562.0" y2="562.0" stroke="#3a3a38" stroke-dasharray="4 4"/>
<text x="1028" y="567.0" font-size="14" text-anchor="end" fill="#d4d4d4">+2</text>
<line x1="1038" x2="1416" y1="522.0" y2="522.0" stroke="#3a3a38" stroke-dasharray="4 4"/>
<text x="1028" y="527.0" font-size="14" text-anchor="end" fill="#d4d4d4">+4</text>
<line x1="1038" x2="1416" y1="482.0" y2="482.0" stroke="#3a3a38" stroke-dasharray="4 4"/>
<text x="1028" y="487.0" font-size="14" text-anchor="end" fill="#d4d4d4">+6</text>
<line x1="1038" x2="1416" y1="442.0" y2="442.0" stroke="#3a3a38" stroke-dasharray="4 4"/>
<text x="1028" y="447.0" font-size="14" text-anchor="end" fill="#d4d4d4">+8</text>
<text x="1068.0" y="704" font-size="14" text-anchor="middle" fill="#d4d4d4">1</text>
<text x="1147.5" y="704" font-size="14" text-anchor="middle" fill="#d4d4d4">3</text>
<text x="1227.0" y="704" font-size="14" text-anchor="middle" fill="#d4d4d4">5</text>
<text x="1306.5" y="704" font-size="14" text-anchor="middle" fill="#d4d4d4">10</text>
<text x="1386.0" y="704" font-size="14" text-anchor="middle" fill="#d4d4d4">20</text>
<text x="1227.0" y="728" font-size="15" text-anchor="middle" fill="#f2f2f2">k</text>
<text x="992" y="562.0" font-size="15" text-anchor="middle" fill="#f2f2f2" transform="rotate(-90 992 562.0)">Recall diff (pp)</text>
<line x1="1038" x2="1038" y1="442" y2="682" stroke="#bdbdbd" stroke-width="1.2"/>
<line x1="1068.0" x2="1068.0" y1="630.0" y2="542.0" stroke="#2fd19a" stroke-width="3" stroke-linecap="round"/>
<circle cx="1068.0" cy="586.0" r="6.5" fill="#1a1a19" stroke="#2fd19a" stroke-width="2.5"/>
<line x1="1147.5" x2="1147.5" y1="598.0" y2="478.0" stroke="#2fd19a" stroke-width="3" stroke-linecap="round"/>
<circle cx="1147.5" cy="538.0" r="6.5" fill="#2fd19a" stroke="#2fd19a" stroke-width="2.5"/>
<line x1="1227.0" x2="1227.0" y1="594.0" y2="470.0" stroke="#2fd19a" stroke-width="3" stroke-linecap="round"/>
<circle cx="1227.0" cy="534.0" r="6.5" fill="#2fd19a" stroke="#2fd19a" stroke-width="2.5"/>
<line x1="1306.5" x2="1306.5" y1="582.0" y2="454.0" stroke="#2fd19a" stroke-width="3" stroke-linecap="round"/>
<circle cx="1306.5" cy="518.0" r="6.5" fill="#2fd19a" stroke="#2fd19a" stroke-width="2.5"/>
<line x1="1386.0" x2="1386.0" y1="610.0" y2="482.0" stroke="#2fd19a" stroke-width="3" stroke-linecap="round"/>
<circle cx="1386.0" cy="546.0" r="6.5" fill="#1a1a19" stroke="#2fd19a" stroke-width="2.5"/>
<text x="1424" y="24" font-size="13" text-anchor="end" fill="#b5b4ad">filled = 95% CI excludes 0 · hollow = includes 0</text>
</svg>
