<svg xmlns="http://www.w3.org/2000/svg" width="1440" height="458" viewBox="0 0 1440 458" font-family="'Helvetica Neue', Helvetica, Arial, 'DejaVu Sans', sans-serif" role="img" aria-label="Recall at k by arm, rows frame selection and crop, columns tolerance 0, 30, 60 s">
<rect width="1440" height="458" fill="#1a1a19"/>
<text x="16" y="24" font-size="19" font-weight="700" fill="#f2f2f2">fixsel vs gazef</text>
<line x1="250" x2="290" y1="18" y2="18" stroke="#3987e5" stroke-width="2.5"/>
<circle cx="270.0" cy="18.0" r="6.5" fill="#3987e5" stroke="#1a1a19" stroke-width="1.5"/>
<text x="298" y="23" font-size="14" fill="#f2f2f2">gazef (gaze crop)</text>
<line x1="451.8" x2="491.8" y1="18" y2="18" stroke="#9085e9" stroke-width="2.5"/>
<circle cx="471.8" cy="18.0" r="6.5" fill="#9085e9" stroke="#1a1a19" stroke-width="1.5"/>
<text x="499.8" y="23" font-size="14" fill="#f2f2f2">fixsel (fixation frames)</text>
<line x1="705.4000000000001" x2="745.4000000000001" y1="18" y2="18" stroke="#a3a29a" stroke-width="2.5"/>
<circle cx="725.4" cy="18.0" r="5.5" fill="#1a1a19" stroke="#a3a29a" stroke-width="2.5"/>
<text x="753.4000000000001" y="23" font-size="14" fill="#f2f2f2">full (16 frames, no crop)</text>
<line x1="966.4000000000001" x2="1006.4000000000001" y1="18" y2="18" stroke="#6b6a64" stroke-width="2" stroke-dasharray="7 5"/>
<text x="1014.4000000000001" y="23" font-size="14" fill="#f2f2f2">chance (random ranking)</text>
<text x="267.0" y="92" font-size="18" font-weight="700" text-anchor="middle" fill="#f2f2f2">tol = 0 s  (strict)</text>
<line x1="78" x2="456" y1="382.0" y2="382.0" stroke="#3a3a38" stroke-dasharray="4 4"/>
<text x="68" y="387.0" font-size="14" text-anchor="end" fill="#d4d4d4">0</text>
<line x1="78" x2="456" y1="314.0" y2="314.0" stroke="#3a3a38" stroke-dasharray="4 4"/>
<text x="68" y="319.0" font-size="14" text-anchor="end" fill="#d4d4d4">5</text>
<line x1="78" x2="456" y1="246.0" y2="246.0" stroke="#3a3a38" stroke-dasharray="4 4"/>
<text x="68" y="251.0" font-size="14" text-anchor="end" fill="#d4d4d4">10</text>
<line x1="78" x2="456" y1="178.0" y2="178.0" stroke="#3a3a38" stroke-dasharray="4 4"/>
<text x="68" y="183.0" font-size="14" text-anchor="end" fill="#d4d4d4">15</text>
<line x1="78" x2="456" y1="110.0" y2="110.0" stroke="#3a3a38" stroke-dasharray="4 4"/>
<text x="68" y="115.0" font-size="14" text-anchor="end" fill="#d4d4d4">20</text>
<line x1="98.0" x2="98.0" y1="392" y2="398" stroke="#bdbdbd" stroke-width="1.2"/>
<text x="98.0" y="415" font-size="14" text-anchor="middle" fill="#d4d4d4">1</text>
<line x1="222.0" x2="222.0" y1="392" y2="398" stroke="#bdbdbd" stroke-width="1.2"/>
<text x="222.0" y="415" font-size="14" text-anchor="middle" fill="#d4d4d4">3</text>
<line x1="279.6" x2="279.6" y1="392" y2="398" stroke="#bdbdbd" stroke-width="1.2"/>
<text x="279.6" y="415" font-size="14" text-anchor="middle" fill="#d4d4d4">5</text>
<line x1="357.8" x2="357.8" y1="392" y2="398" stroke="#bdbdbd" stroke-width="1.2"/>
<text x="357.8" y="415" font-size="14" text-anchor="middle" fill="#d4d4d4">10</text>
<line x1="436.0" x2="436.0" y1="392" y2="398" stroke="#bdbdbd" stroke-width="1.2"/>
<text x="436.0" y="415" font-size="14" text-anchor="middle" fill="#d4d4d4">20</text>
<text x="267.0" y="442" font-size="15" text-anchor="middle" fill="#f2f2f2">k (log scale)</text>
<text x="32" y="251.0" font-size="15" text-anchor="middle" fill="#f2f2f2" transform="rotate(-90 32 251.0)">Recall (%)</text>
<line x1="222.0" x2="222.0" y1="110" y2="392" stroke="#3a3a38" stroke-width="1.5"/>
<line x1="78" x2="78" y1="110" y2="392" stroke="#bdbdbd" stroke-width="1.2"/>
<line x1="78" x2="456" y1="392" y2="392" stroke="#bdbdbd" stroke-width="1.2"/>
<polyline points="98.0,380.4 222.0,377.3 279.6,374.2 357.8,366.5 436.0,351.1" fill="none" stroke="#6b6a64" stroke-width="2" stroke-dasharray="7 5"/>
<polyline points="98.0,365.2 222.0,340.1 279.6,320.6 357.8,267.5 436.0,208.9" fill="none" stroke="#a3a29a" stroke-width="2.5" stroke-linejoin="round" stroke-linecap="round"/>
<circle cx="98.0" cy="365.2" r="5.5" fill="#1a1a19" stroke="#a3a29a" stroke-width="2.5"/>
<circle cx="222.0" cy="340.1" r="5.5" fill="#1a1a19" stroke="#a3a29a" stroke-width="2.5"/>
<circle cx="279.6" cy="320.6" r="5.5" fill="#1a1a19" stroke="#a3a29a" stroke-width="2.5"/>
<circle cx="357.8" cy="267.5" r="5.5" fill="#1a1a19" stroke="#a3a29a" stroke-width="2.5"/>
<circle cx="436.0" cy="208.9" r="5.5" fill="#1a1a19" stroke="#a3a29a" stroke-width="2.5"/>
<polyline points="98.0,348.5 222.0,323.4 279.6,301.0 357.8,239.6 436.0,200.5" fill="none" stroke="#9085e9" stroke-width="2.5" stroke-linejoin="round" stroke-linecap="round"/>
<circle cx="98.0" cy="348.5" r="6.5" fill="#9085e9" stroke="#1a1a19" stroke-width="1.5"/>
<circle cx="222.0" cy="323.4" r="6.5" fill="#9085e9" stroke="#1a1a19" stroke-width="1.5"/>
<circle cx="279.6" cy="301.0" r="6.5" fill="#9085e9" stroke="#1a1a19" stroke-width="1.5"/>
<circle cx="357.8" cy="239.6" r="6.5" fill="#9085e9" stroke="#1a1a19" stroke-width="1.5"/>
<circle cx="436.0" cy="200.5" r="6.5" fill="#9085e9" stroke="#1a1a19" stroke-width="1.5"/>
<polyline points="98.0,348.5 222.0,312.2 279.6,295.4 357.8,208.9 436.0,144.6" fill="none" stroke="#3987e5" stroke-width="2.5" stroke-linejoin="round" stroke-linecap="round"/>
<circle cx="98.0" cy="348.5" r="6.5" fill="#3987e5" stroke="#1a1a19" stroke-width="1.5"/>
<circle cx="222.0" cy="312.2" r="6.5" fill="#3987e5" stroke="#1a1a19" stroke-width="1.5"/>
<circle cx="279.6" cy="295.4" r="6.5" fill="#3987e5" stroke="#1a1a19" stroke-width="1.5"/>
<circle cx="357.8" cy="208.9" r="6.5" fill="#3987e5" stroke="#1a1a19" stroke-width="1.5"/>
<circle cx="436.0" cy="144.6" r="6.5" fill="#3987e5" stroke="#1a1a19" stroke-width="1.5"/>
<text x="747.0" y="92" font-size="18" font-weight="700" text-anchor="middle" fill="#f2f2f2">tol = 30 s</text>
<line x1="558" x2="936" y1="382.0" y2="382.0" stroke="#3a3a38" stroke-dasharray="4 4"/>
<text x="548" y="387.0" font-size="14" text-anchor="end" fill="#d4d4d4">0</text>
<line x1="558" x2="936" y1="336.7" y2="336.7" stroke="#3a3a38" stroke-dasharray="4 4"/>
<text x="548" y="341.7" font-size="14" text-anchor="end" fill="#d4d4d4">5</text>
<line x1="558" x2="936" y1="291.3" y2="291.3" stroke="#3a3a38" stroke-dasharray="4 4"/>
<text x="548" y="296.3" font-size="14" text-anchor="end" fill="#d4d4d4">10</text>
<line x1="558" x2="936" y1="246.0" y2="246.0" stroke="#3a3a38" stroke-dasharray="4 4"/>
<text x="548" y="251.0" font-size="14" text-anchor="end" fill="#d4d4d4">15</text>
<line x1="558" x2="936" y1="200.7" y2="200.7" stroke="#3a3a38" stroke-dasharray="4 4"/>
<text x="548" y="205.7" font-size="14" text-anchor="end" fill="#d4d4d4">20</text>
<line x1="558" x2="936" y1="155.3" y2="155.3" stroke="#3a3a38" stroke-dasharray="4 4"/>
<text x="548" y="160.3" font-size="14" text-anchor="end" fill="#d4d4d4">25</text>
<line x1="558" x2="936" y1="110.0" y2="110.0" stroke="#3a3a38" stroke-dasharray="4 4"/>
<text x="548" y="115.0" font-size="14" text-anchor="end" fill="#d4d4d4">30</text>
<line x1="578.0" x2="578.0" y1="392" y2="398" stroke="#bdbdbd" stroke-width="1.2"/>
<text x="578.0" y="415" font-size="14" text-anchor="middle" fill="#d4d4d4">1</text>
<line x1="702.0" x2="702.0" y1="392" y2="398" stroke="#bdbdbd" stroke-width="1.2"/>
<text x="702.0" y="415" font-size="14" text-anchor="middle" fill="#d4d4d4">3</text>
<line x1="759.6" x2="759.6" y1="392" y2="398" stroke="#bdbdbd" stroke-width="1.2"/>
<text x="759.6" y="415" font-size="14" text-anchor="middle" fill="#d4d4d4">5</text>
<line x1="837.8" x2="837.8" y1="392" y2="398" stroke="#bdbdbd" stroke-width="1.2"/>
<text x="837.8" y="415" font-size="14" text-anchor="middle" fill="#d4d4d4">10</text>
<line x1="916.0" x2="916.0" y1="392" y2="398" stroke="#bdbdbd" stroke-width="1.2"/>
<text x="916.0" y="415" font-size="14" text-anchor="middle" fill="#d4d4d4">20</text>
<text x="747.0" y="442" font-size="15" text-anchor="middle" fill="#f2f2f2">k (log scale)</text>
<text x="512" y="251.0" font-size="15" text-anchor="middle" fill="#f2f2f2" transform="rotate(-90 512 251.0)">Recall (%)</text>
<line x1="702.0" x2="702.0" y1="110" y2="392" stroke="#3a3a38" stroke-width="1.5"/>
<line x1="558" x2="558" y1="110" y2="392" stroke="#bdbdbd" stroke-width="1.2"/>
<line x1="558" x2="936" y1="392" y2="392" stroke="#bdbdbd" stroke-width="1.2"/>
<polyline points="578.0,379.0 702.0,373.2 759.6,367.5 837.8,354.2 916.0,330.1" fill="none" stroke="#6b6a64" stroke-width="2" stroke-dasharray="7 5"/>
<polyline points="578.0,351.2 702.0,322.2 759.6,300.4 837.8,233.3 916.0,182.5" fill="none" stroke="#a3a29a" stroke-width="2.5" stroke-linejoin="round" stroke-linecap="round"/>
<circle cx="578.0" cy="351.2" r="5.5" fill="#1a1a19" stroke="#a3a29a" stroke-width="2.5"/>
<circle cx="702.0" cy="322.2" r="5.5" fill="#1a1a19" stroke="#a3a29a" stroke-width="2.5"/>
<circle cx="759.6" cy="300.4" r="5.5" fill="#1a1a19" stroke="#a3a29a" stroke-width="2.5"/>
<circle cx="837.8" cy="233.3" r="5.5" fill="#1a1a19" stroke="#a3a29a" stroke-width="2.5"/>
<circle cx="916.0" cy="182.5" r="5.5" fill="#1a1a19" stroke="#a3a29a" stroke-width="2.5"/>
<polyline points="578.0,331.2 702.0,295.0 759.6,275.0 837.8,236.9 916.0,180.7" fill="none" stroke="#9085e9" stroke-width="2.5" stroke-linejoin="round" stroke-linecap="round"/>
<circle cx="578.0" cy="331.2" r="6.5" fill="#9085e9" stroke="#1a1a19" stroke-width="1.5"/>
<circle cx="702.0" cy="295.0" r="6.5" fill="#9085e9" stroke="#1a1a19" stroke-width="1.5"/>
<circle cx="759.6" cy="275.0" r="6.5" fill="#9085e9" stroke="#1a1a19" stroke-width="1.5"/>
<circle cx="837.8" cy="236.9" r="6.5" fill="#9085e9" stroke="#1a1a19" stroke-width="1.5"/>
<circle cx="916.0" cy="180.7" r="6.5" fill="#9085e9" stroke="#1a1a19" stroke-width="1.5"/>
<polyline points="578.0,336.7 702.0,293.1 759.6,262.3 837.8,195.2 916.0,126.3" fill="none" stroke="#3987e5" stroke-width="2.5" stroke-linejoin="round" stroke-linecap="round"/>
<circle cx="578.0" cy="336.7" r="6.5" fill="#3987e5" stroke="#1a1a19" stroke-width="1.5"/>
<circle cx="702.0" cy="293.1" r="6.5" fill="#3987e5" stroke="#1a1a19" stroke-width="1.5"/>
<circle cx="759.6" cy="262.3" r="6.5" fill="#3987e5" stroke="#1a1a19" stroke-width="1.5"/>
<circle cx="837.8" cy="195.2" r="6.5" fill="#3987e5" stroke="#1a1a19" stroke-width="1.5"/>
<circle cx="916.0" cy="126.3" r="6.5" fill="#3987e5" stroke="#1a1a19" stroke-width="1.5"/>
<text x="1227.0" y="92" font-size="18" font-weight="700" text-anchor="middle" fill="#f2f2f2">tol = 60 s</text>
<line x1="1038" x2="1416" y1="382.0" y2="382.0" stroke="#3a3a38" stroke-dasharray="4 4"/>
<text x="1028" y="387.0" font-size="14" text-anchor="end" fill="#d4d4d4">0</text>
<line x1="1038" x2="1416" y1="343.1" y2="343.1" stroke="#3a3a38" stroke-dasharray="4 4"/>
<text x="1028" y="348.1" font-size="14" text-anchor="end" fill="#d4d4d4">5</text>
<line x1="1038" x2="1416" y1="304.3" y2="304.3" stroke="#3a3a38" stroke-dasharray="4 4"/>
<text x="1028" y="309.3" font-size="14" text-anchor="end" fill="#d4d4d4">10</text>
<line x1="1038" x2="1416" y1="265.4" y2="265.4" stroke="#3a3a38" stroke-dasharray="4 4"/>
<text x="1028" y="270.4" font-size="14" text-anchor="end" fill="#d4d4d4">15</text>
<line x1="1038" x2="1416" y1="226.6" y2="226.6" stroke="#3a3a38" stroke-dasharray="4 4"/>
<text x="1028" y="231.6" font-size="14" text-anchor="end" fill="#d4d4d4">20</text>
<line x1="1038" x2="1416" y1="187.7" y2="187.7" stroke="#3a3a38" stroke-dasharray="4 4"/>
<text x="1028" y="192.7" font-size="14" text-anchor="end" fill="#d4d4d4">25</text>
<line x1="1038" x2="1416" y1="148.9" y2="148.9" stroke="#3a3a38" stroke-dasharray="4 4"/>
<text x="1028" y="153.9" font-size="14" text-anchor="end" fill="#d4d4d4">30</text>
<line x1="1038" x2="1416" y1="110.0" y2="110.0" stroke="#3a3a38" stroke-dasharray="4 4"/>
<text x="1028" y="115.0" font-size="14" text-anchor="end" fill="#d4d4d4">35</text>
<line x1="1058.0" x2="1058.0" y1="392" y2="398" stroke="#bdbdbd" stroke-width="1.2"/>
<text x="1058.0" y="415" font-size="14" text-anchor="middle" fill="#d4d4d4">1</text>
<line x1="1182.0" x2="1182.0" y1="392" y2="398" stroke="#bdbdbd" stroke-width="1.2"/>
<text x="1182.0" y="415" font-size="14" text-anchor="middle" fill="#d4d4d4">3</text>
<line x1="1239.6" x2="1239.6" y1="392" y2="398" stroke="#bdbdbd" stroke-width="1.2"/>
<text x="1239.6" y="415" font-size="14" text-anchor="middle" fill="#d4d4d4">5</text>
<line x1="1317.8" x2="1317.8" y1="392" y2="398" stroke="#bdbdbd" stroke-width="1.2"/>
<text x="1317.8" y="415" font-size="14" text-anchor="middle" fill="#d4d4d4">10</text>
<line x1="1396.0" x2="1396.0" y1="392" y2="398" stroke="#bdbdbd" stroke-width="1.2"/>
<text x="1396.0" y="415" font-size="14" text-anchor="middle" fill="#d4d4d4">20</text>
<text x="1227.0" y="442" font-size="15" text-anchor="middle" fill="#f2f2f2">k (log scale)</text>
<text x="992" y="251.0" font-size="15" text-anchor="middle" fill="#f2f2f2" transform="rotate(-90 992 251.0)">Recall (%)</text>
<line x1="1182.0" x2="1182.0" y1="110" y2="392" stroke="#3a3a38" stroke-width="1.5"/>
<line x1="1038" x2="1038" y1="110" y2="392" stroke="#bdbdbd" stroke-width="1.2"/>
<line x1="1038" x2="1416" y1="392" y2="392" stroke="#bdbdbd" stroke-width="1.2"/>
<polyline points="1058.0,377.7 1182.0,369.6 1239.6,361.9 1317.8,344.4 1396.0,314.0" fill="none" stroke="#6b6a64" stroke-width="2" stroke-dasharray="7 5"/>
<polyline points="1058.0,344.7 1182.0,310.5 1239.6,290.3 1317.8,223.5 1396.0,173.7" fill="none" stroke="#a3a29a" stroke-width="2.5" stroke-linejoin="round" stroke-linecap="round"/>
<circle cx="1058.0" cy="344.7" r="5.5" fill="#1a1a19" stroke="#a3a29a" stroke-width="2.5"/>
<circle cx="1182.0" cy="310.5" r="5.5" fill="#1a1a19" stroke="#a3a29a" stroke-width="2.5"/>
<circle cx="1239.6" cy="290.3" r="5.5" fill="#1a1a19" stroke="#a3a29a" stroke-width="2.5"/>
<circle cx="1317.8" cy="223.5" r="5.5" fill="#1a1a19" stroke="#a3a29a" stroke-width="2.5"/>
<circle cx="1396.0" cy="173.7" r="5.5" fill="#1a1a19" stroke="#a3a29a" stroke-width="2.5"/>
<polyline points="1058.0,330.7 1182.0,287.2 1239.6,265.4 1317.8,211.0 1396.0,159.7" fill="none" stroke="#9085e9" stroke-width="2.5" stroke-linejoin="round" stroke-linecap="round"/>
<circle cx="1058.0" cy="330.7" r="6.5" fill="#9085e9" stroke="#1a1a19" stroke-width="1.5"/>
<circle cx="1182.0" cy="287.2" r="6.5" fill="#9085e9" stroke="#1a1a19" stroke-width="1.5"/>
<circle cx="1239.6" cy="265.4" r="6.5" fill="#9085e9" stroke="#1a1a19" stroke-width="1.5"/>
<circle cx="1317.8" cy="211.0" r="6.5" fill="#9085e9" stroke="#1a1a19" stroke-width="1.5"/>
<circle cx="1396.0" cy="159.7" r="6.5" fill="#9085e9" stroke="#1a1a19" stroke-width="1.5"/>
<polyline points="1058.0,326.0 1182.0,277.9 1239.6,246.8 1317.8,184.6 1396.0,124.0" fill="none" stroke="#3987e5" stroke-width="2.5" stroke-linejoin="round" stroke-linecap="round"/>
<circle cx="1058.0" cy="326.0" r="6.5" fill="#3987e5" stroke="#1a1a19" stroke-width="1.5"/>
<circle cx="1182.0" cy="277.9" r="6.5" fill="#3987e5" stroke="#1a1a19" stroke-width="1.5"/>
<circle cx="1239.6" cy="246.8" r="6.5" fill="#3987e5" stroke="#1a1a19" stroke-width="1.5"/>
<circle cx="1317.8" cy="184.6" r="6.5" fill="#3987e5" stroke="#1a1a19" stroke-width="1.5"/>
<circle cx="1396.0" cy="124.0" r="6.5" fill="#3987e5" stroke="#1a1a19" stroke-width="1.5"/>
</svg>
